<?xml version="1.0" encoding="UTF-8" standalone="no"?>
<!-- Generator: Adobe Illustrator 18.0.0, SVG Export Plug-In . SVG Version: 6.00 Build 0)  -->

<svg
   xmlns:dc="http://purl.org/dc/elements/1.1/"
   xmlns:cc="http://creativecommons.org/ns#"
   xmlns:rdf="http://www.w3.org/1999/02/22-rdf-syntax-ns#"
   xmlns:svg="http://www.w3.org/2000/svg"
   xmlns="http://www.w3.org/2000/svg"
   xmlns:sodipodi="http://sodipodi.sourceforge.net/DTD/sodipodi-0.dtd"
   xmlns:inkscape="http://www.inkscape.org/namespaces/inkscape"
   version="1.1"
   id="Capa_1"
   x="0px"
   y="0px"
   viewBox="0 0 56 56"
   style="enable-background:new 0 0 56 56;"
   xml:space="preserve"
   sodipodi:docname="txt.svg"
   inkscape:version="0.92.2 5c3e80d, 2017-08-06"><metadata
     id="metadata77"><rdf:RDF><cc:Work
         rdf:about=""><dc:format>image/svg+xml</dc:format><dc:type
           rdf:resource="http://purl.org/dc/dcmitype/StillImage" /></cc:Work></rdf:RDF></metadata><defs
     id="defs75" /><sodipodi:namedview
     pagecolor="#ffffff"
     bordercolor="#666666"
     borderopacity="1"
     objecttolerance="10"
     gridtolerance="10"
     guidetolerance="10"
     inkscape:pageopacity="0"
     inkscape:pageshadow="2"
     inkscape:window-width="1440"
     inkscape:window-height="785"
     id="namedview73"
     showgrid="false"
     inkscape:zoom="8.4285714"
     inkscape:cx="19.419209"
     inkscape:cy="22.431561"
     inkscape:window-x="0"
     inkscape:window-y="1"
     inkscape:window-maximized="1"
     inkscape:current-layer="g40" /><g
     id="g40"><path
       style="fill:#E9E9E0;"
       d="M36.985,0H7.963C7.155,0,6.5,0.655,6.5,1.926V55c0,0.345,0.655,1,1.463,1h40.074   c0.808,0,1.463-0.655,1.463-1V12.978c0-0.696-0.093-0.92-0.257-1.085L37.607,0.257C37.442,0.093,37.218,0,36.985,0z"
       id="path2" /><polygon
       style="fill:#D9D7CA;"
       points="37.5,0.151 37.5,12 49.349,12  "
       id="polygon4" /><path
       style="fill:#95A5A5;"
       d="M48.037,56H7.963C7.155,56,6.5,55.345,6.5,54.537V39h43v15.537C49.5,55.345,48.845,56,48.037,56z"
       id="path6" /><g
       id="g14"
       transform="matrix(1.06313,0,0,1.3008331,-1.2997375,-15.486236)"><text
         xml:space="preserve"
         style="font-style:normal;font-weight:normal;font-size:15.19295597px;line-height:1.25;font-family:sans-serif;letter-spacing:0px;word-spacing:0px;fill:#ffffff;fill-opacity:1;stroke:none;stroke-width:0.37982389"
         x="14.030931"
         y="62.196293"
         id="text81"
         transform="scale(1.1701471,0.8545934)"><tspan
           sodipodi:role="line"
           id="tspan79"
           x="14.030931"
           y="62.196293"
           style="fill:#ffffff;stroke-width:0.37982389">PL</tspan></text>
</g><path
       style="fill:#C8BDB8;"
       d="M18.5,13h-6c-0.553,0-1-0.448-1-1s0.447-1,1-1h6c0.553,0,1,0.448,1,1S19.053,13,18.5,13z"
       id="path16" /><path
       style="fill:#C8BDB8;"
       d="M21.5,18h-9c-0.553,0-1-0.448-1-1s0.447-1,1-1h9c0.553,0,1,0.448,1,1S22.053,18,21.5,18z"
       id="path18" /><path
       style="fill:#C8BDB8;"
       d="M25.5,18c-0.26,0-0.521-0.11-0.71-0.29c-0.181-0.19-0.29-0.44-0.29-0.71s0.109-0.52,0.3-0.71   c0.36-0.37,1.04-0.37,1.41,0c0.18,0.19,0.29,0.45,0.29,0.71c0,0.26-0.11,0.52-0.29,0.71C26.02,17.89,25.76,18,25.5,18z"
       id="path20" /><path
       style="fill:#C8BDB8;"
       d="M37.5,18h-8c-0.553,0-1-0.448-1-1s0.447-1,1-1h8c0.553,0,1,0.448,1,1S38.053,18,37.5,18z"
       id="path22" /><path
       style="fill:#C8BDB8;"
       d="M12.5,33c-0.26,0-0.521-0.11-0.71-0.29c-0.181-0.19-0.29-0.45-0.29-0.71   c0-0.26,0.109-0.52,0.29-0.71c0.37-0.37,1.05-0.37,1.42,0.01c0.18,0.18,0.29,0.44,0.29,0.7c0,0.26-0.11,0.52-0.29,0.71   C13.02,32.89,12.76,33,12.5,33z"
       id="path24" /><path
       style="fill:#C8BDB8;"
       d="M24.5,33h-8c-0.553,0-1-0.448-1-1s0.447-1,1-1h8c0.553,0,1,0.448,1,1S25.053,33,24.5,33z"
       id="path26" /><path
       style="fill:#C8BDB8;"
       d="M43.5,18h-2c-0.553,0-1-0.448-1-1s0.447-1,1-1h2c0.553,0,1,0.448,1,1S44.053,18,43.5,18z"
       id="path28" /><path
       style="fill:#C8BDB8;"
       d="M34.5,23h-22c-0.553,0-1-0.448-1-1s0.447-1,1-1h22c0.553,0,1,0.448,1,1S35.053,23,34.5,23z"
       id="path30" /><path
       style="fill:#C8BDB8;"
       d="M43.5,23h-6c-0.553,0-1-0.448-1-1s0.447-1,1-1h6c0.553,0,1,0.448,1,1S44.053,23,43.5,23z"
       id="path32" /><path
       style="fill:#C8BDB8;"
       d="M16.5,28h-4c-0.553,0-1-0.448-1-1s0.447-1,1-1h4c0.553,0,1,0.448,1,1S17.053,28,16.5,28z"
       id="path34" /><path
       style="fill:#C8BDB8;"
       d="M30.5,28h-10c-0.553,0-1-0.448-1-1s0.447-1,1-1h10c0.553,0,1,0.448,1,1S31.053,28,30.5,28z"
       id="path36" /><path
       style="fill:#C8BDB8;"
       d="M43.5,28h-9c-0.553,0-1-0.448-1-1s0.447-1,1-1h9c0.553,0,1,0.448,1,1S44.053,28,43.5,28z"
       id="path38" /></g><g
     id="g42" /><g
     id="g44" /><g
     id="g46" /><g
     id="g48" /><g
     id="g50" /><g
     id="g52" /><g
     id="g54" /><g
     id="g56" /><g
     id="g58" /><g
     id="g60" /><g
     id="g62" /><g
     id="g64" /><g
     id="g66" /><g
     id="g68" /><g
     id="g70" /></svg>