<?xml version="1.0" encoding="UTF-8" standalone="no"?>
<svg
   xmlns:dc="http://purl.org/dc/elements/1.1/"
   xmlns:cc="http://creativecommons.org/ns#"
   xmlns:rdf="http://www.w3.org/1999/02/22-rdf-syntax-ns#"
   xmlns:svg="http://www.w3.org/2000/svg"
   xmlns="http://www.w3.org/2000/svg"
   xmlns:xlink="http://www.w3.org/1999/xlink"
   xmlns:sodipodi="http://sodipodi.sourceforge.net/DTD/sodipodi-0.dtd"
   xmlns:inkscape="http://www.inkscape.org/namespaces/inkscape"
   height="100"
   viewBox="0 0 99.750003 75.000003"
   width="133"
   version="1.1"
   id="svg21"
   sodipodi:docname="radio-group.svg"
   inkscape:export-filename="/Users/mamadou/Desktop/PL/components/src/assets/images/radio-group.png"
   inkscape:export-xdpi="52"
   inkscape:export-ydpi="52"
   inkscape:version="0.92.2 5c3e80d, 2017-08-06">
  <metadata
     id="metadata27">
    <rdf:RDF>
      <cc:Work
         rdf:about="">
        <dc:format>image/svg+xml</dc:format>
        <dc:type
           rdf:resource="http://purl.org/dc/dcmitype/StillImage" />
        <dc:title></dc:title>
      </cc:Work>
    </rdf:RDF>
  </metadata>
  <defs
     id="defs25">
    <linearGradient
       inkscape:collect="always"
       xlink:href="#gradiant"
       id="linearGradient845"
       x1="-19.525423"
       y1="40.135593"
       x2="39.050842"
       y2="40.135593"
       gradientUnits="userSpaceOnUse"
       gradientTransform="matrix(7.1799775,0,0,6.298149,194.42939,45.679837)" />
  </defs>
  <sodipodi:namedview
     pagecolor="#ffffff"
     bordercolor="#666666"
     borderopacity="1"
     objecttolerance="10"
     gridtolerance="10"
     guidetolerance="10"
     inkscape:pageopacity="0"
     inkscape:pageshadow="2"
     inkscape:window-width="1440"
     inkscape:window-height="788"
     id="namedview23"
     showgrid="false"
     inkscape:zoom="3.8812838"
     inkscape:cx="69.723471"
     inkscape:cy="51.525166"
     inkscape:window-x="0"
     inkscape:window-y="1"
     inkscape:window-maximized="1"
     inkscape:current-layer="svg21"
     units="px" />
  <linearGradient
     id="gradiant"
     gradientUnits="userSpaceOnUse"
     x1="0"
     x2="512"
     y1="256"
     y2="256">
    <stop
       offset="0"
       stop-color="#00f38d"
       id="stop2" />
    <stop
       offset="1"
       stop-color="#009eff"
       id="stop4" />
  </linearGradient>
  <g
     id="g832"
     transform="matrix(0.23865061,0,0,0.23865061,-12.938248,-33.640452)">
    <rect
       inkscape:export-ydpi="52.923161"
       inkscape:export-xdpi="52.923161"
       inkscape:export-filename="/Users/mamadou/Desktop/PL/components/src/assets/images/radio-group.png"
       y="141.32626"
       x="54.237286"
       height="314.26694"
       width="420.57632"
       id="rect837"
       style="fill:url(#linearGradient845);fill-opacity:1;stroke-width:5.043468" />
    <g
       style="fill:#ffffff"
       transform="matrix(0.56048064,0,0,0.6016554,121.04241,144.43595)"
       id="g19">
      <path
         inkscape:connector-curvature="0"
         id="path9"
         d="m 155.875,245.06641 c -36.87109,0 -66.867188,-29.9961 -66.867188,-66.86719 0,-36.8711 29.996098,-66.86719 66.867188,-66.86719 36.87109,0 66.86719,29.99609 66.86719,66.86719 0,36.87109 -29.9961,66.86719 -66.86719,66.86719 z m 0,-103.73438 c -20.32813,0 -36.86719,16.53906 -36.86719,36.86719 0,20.32812 16.53906,36.86719 36.86719,36.86719 20.32812,0 36.86719,-16.53907 36.86719,-36.86719 0,-20.32813 -16.53907,-36.86719 -36.86719,-36.86719 z m 0,0" />
      <path
         inkscape:connector-curvature="0"
         id="path11"
         d="m 246.64453,163.19922 h 176.34766 v 30 H 246.64453 Z m 0,0" />
      <path
         inkscape:connector-curvature="0"
         id="path13"
         d="m 155.875,165.23047 c -7.14844,0 -12.96484,5.82031 -12.96484,12.96875 0,7.14844 5.8164,12.96484 12.96484,12.96484 7.15234,0 12.96875,-5.8164 12.96875,-12.96484 0,-7.14844 -5.81641,-12.96875 -12.96875,-12.96875 z m 0,0" />
      <path
         inkscape:connector-curvature="0"
         id="path15"
         d="m 155.875,400.66797 c -36.87109,0 -66.867188,-29.9961 -66.867188,-66.86719 0,-36.87109 29.996098,-66.86719 66.867188,-66.86719 36.87109,0 66.86719,29.9961 66.86719,66.86719 0,36.87109 -29.9961,66.86719 -66.86719,66.86719 z m 0,-103.73438 c -20.32813,0 -36.86719,16.53907 -36.86719,36.86719 0,20.32813 16.53906,36.86719 36.86719,36.86719 20.32812,0 36.86719,-16.53906 36.86719,-36.86719 0,-20.32812 -16.53907,-36.86719 -36.86719,-36.86719 z m 0,0" />
      <path
         inkscape:connector-curvature="0"
         id="path17"
         d="m 246.64453,318.80078 h 176.34766 v 30 H 246.64453 Z m 0,0" />
    </g>
  </g>
</svg>
